<svg width="1600" height="1000" viewBox="0 0 1600 1000" fill="none" xmlns="http://www.w3.org/2000/svg">
  <rect width="1600" height="1000" fill="#08161A"/>
  <rect x="864" y="86" width="624" height="828" rx="38" fill="#0F252A" stroke="#82D8D0" stroke-opacity="0.2"/>
  <rect x="894" y="116" width="564" height="768" rx="28" fill="#112C31"/>
  <circle cx="1176" cy="468" r="184" stroke="#82D8D0" stroke-opacity="0.3" stroke-width="4"/>
  <circle cx="1176" cy="468" r="116" stroke="#EF976B" stroke-opacity="0.54" stroke-width="2"/>
  <path d="M0 828H1600" stroke="#82D8D0" stroke-opacity="0.12"/>
  <path d="M0 904H1600" stroke="#82D8D0" stroke-opacity="0.08"/>
  <path d="M0 196C260 132 472 148 710 242C918 324 1118 356 1600 252" stroke="#82D8D0" stroke-opacity="0.18" stroke-width="2"/>
  <path d="M0 248C286 184 514 204 732 298C968 396 1208 424 1600 336" stroke="#82D8D0" stroke-opacity="0.12" stroke-width="2"/>
  <path d="M1044 612C1122 552 1248 360 1384 426" stroke="#EF976B" stroke-opacity="0.42" stroke-width="8" stroke-linecap="round"/>
  <text x="118" y="146" fill="#E8F4EF" font-size="26" letter-spacing="6" font-family="Helvetica, Arial, sans-serif">V005 / TIDAL ATLAS</text>
  <text x="118" y="326" fill="#E8F4EF" font-size="124" font-family="Georgia, serif">光軌</text>
  <text x="118" y="438" fill="#E8F4EF" font-size="58" font-family="Georgia, serif">Cartographic memory for a versioned three.js lab</text>
  <text x="118" y="518" fill="#BFD7D2" font-size="30" font-family="Helvetica, Arial, sans-serif">海圖桌、潮汐航道、測深註記與被封存在光盒中的 3D 核心</text>
  <text x="118" y="862" fill="#BFD7D2" font-size="24" letter-spacing="5" font-family="Helvetica, Arial, sans-serif">STYLE FAMILY / TIDAL CARTOGRAPHY • ILLUMINATED ARCHIVE</text>
</svg>
